<mxfile host="app.diagrams.net" agent="Mozilla/5.0 (Windows NT 10.0; Win64; x64) AppleWebKit/537.36 (KHTML, like Gecko) Chrome/129.0.0.0 Safari/537.36" version="24.7.6">
  <diagram name="Page-1" id="Wi3dqfEEg1gpS_7ld72H">
    <mxGraphModel dx="4920" dy="3160" grid="1" gridSize="10" guides="1" tooltips="1" connect="1" arrows="1" fold="1" page="1" pageScale="1" pageWidth="850" pageHeight="1100" math="0" shadow="0">
      <root>
        <mxCell id="0" />
        <mxCell id="1" parent="0" />
        <mxCell id="mHmFYiK8Zlly9gaLNjOD-3" value="&lt;b&gt;&lt;font style=&quot;font-size: 40px;&quot;&gt;API Gateway&lt;/font&gt;&lt;/b&gt;" style="swimlane;fontStyle=0;childLayout=stackLayout;horizontal=1;startSize=50;horizontalStack=0;resizeParent=1;resizeParentMax=0;resizeLast=0;collapsible=1;marginBottom=0;whiteSpace=wrap;html=1;" vertex="1" parent="1">
          <mxGeometry x="-180" y="-140" width="590" height="170" as="geometry" />
        </mxCell>
        <mxCell id="mHmFYiK8Zlly9gaLNjOD-5" value="&lt;font style=&quot;font-size: 30px;&quot;&gt;- Endpoints { }&lt;/font&gt;" style="text;strokeColor=none;fillColor=none;align=left;verticalAlign=middle;spacingLeft=4;spacingRight=4;overflow=hidden;points=[[0,0.5],[1,0.5]];portConstraint=eastwest;rotatable=0;whiteSpace=wrap;html=1;" vertex="1" parent="mHmFYiK8Zlly9gaLNjOD-3">
          <mxGeometry y="50" width="590" height="60" as="geometry" />
        </mxCell>
        <mxCell id="mHmFYiK8Zlly9gaLNjOD-6" value="&lt;font style=&quot;font-size: 30px;&quot;&gt;ProcessRequest (route, payload, token)&lt;/font&gt;" style="text;strokeColor=none;fillColor=none;align=left;verticalAlign=middle;spacingLeft=4;spacingRight=4;overflow=hidden;points=[[0,0.5],[1,0.5]];portConstraint=eastwest;rotatable=0;whiteSpace=wrap;html=1;" vertex="1" parent="mHmFYiK8Zlly9gaLNjOD-3">
          <mxGeometry y="110" width="590" height="60" as="geometry" />
        </mxCell>
        <mxCell id="mHmFYiK8Zlly9gaLNjOD-14" value="&lt;span style=&quot;font-size: 40px;&quot;&gt;&lt;b&gt;JwtUtils&lt;/b&gt;&lt;/span&gt;" style="swimlane;fontStyle=0;childLayout=stackLayout;horizontal=1;startSize=50;horizontalStack=0;resizeParent=1;resizeParentMax=0;resizeLast=0;collapsible=1;marginBottom=0;whiteSpace=wrap;html=1;" vertex="1" parent="1">
          <mxGeometry x="-240" y="100" width="695" height="170" as="geometry" />
        </mxCell>
        <mxCell id="mHmFYiK8Zlly9gaLNjOD-15" value="&lt;span style=&quot;font-size: 30px;&quot;&gt;+&amp;nbsp;GenerateJwtToken (userEmail, secretKey)&lt;/span&gt;" style="text;strokeColor=none;fillColor=none;align=left;verticalAlign=middle;spacingLeft=4;spacingRight=4;overflow=hidden;points=[[0,0.5],[1,0.5]];portConstraint=eastwest;rotatable=0;whiteSpace=wrap;html=1;" vertex="1" parent="mHmFYiK8Zlly9gaLNjOD-14">
          <mxGeometry y="50" width="695" height="60" as="geometry" />
        </mxCell>
        <mxCell id="mHmFYiK8Zlly9gaLNjOD-16" value="&lt;div&gt;&lt;span style=&quot;font-size: 30px;&quot;&gt;+ ValidateJwtToken(token, secretKey, userEmail)&lt;/span&gt;&lt;/div&gt;&lt;div&gt;&lt;br&gt;&lt;/div&gt;" style="text;strokeColor=none;fillColor=none;align=left;verticalAlign=middle;spacingLeft=4;spacingRight=4;overflow=hidden;points=[[0,0.5],[1,0.5]];portConstraint=eastwest;rotatable=0;whiteSpace=wrap;html=1;" vertex="1" parent="mHmFYiK8Zlly9gaLNjOD-14">
          <mxGeometry y="110" width="695" height="60" as="geometry" />
        </mxCell>
        <mxCell id="mHmFYiK8Zlly9gaLNjOD-21" value="&lt;b&gt;&lt;font style=&quot;font-size: 40px;&quot;&gt;Login Controller&lt;/font&gt;&lt;/b&gt;" style="swimlane;fontStyle=0;childLayout=stackLayout;horizontal=1;startSize=50;horizontalStack=0;resizeParent=1;resizeParentMax=0;resizeLast=0;collapsible=1;marginBottom=0;whiteSpace=wrap;html=1;" vertex="1" parent="1">
          <mxGeometry x="750" y="-190" width="590" height="230" as="geometry" />
        </mxCell>
        <mxCell id="mHmFYiK8Zlly9gaLNjOD-22" value="&lt;font style=&quot;font-size: 30px;&quot;&gt;+ [HttpPost] Register (user)&lt;/font&gt;" style="text;strokeColor=none;fillColor=none;align=left;verticalAlign=middle;spacingLeft=4;spacingRight=4;overflow=hidden;points=[[0,0.5],[1,0.5]];portConstraint=eastwest;rotatable=0;whiteSpace=wrap;html=1;" vertex="1" parent="mHmFYiK8Zlly9gaLNjOD-21">
          <mxGeometry y="50" width="590" height="60" as="geometry" />
        </mxCell>
        <mxCell id="mHmFYiK8Zlly9gaLNjOD-23" value="&lt;span style=&quot;font-size: 30px;&quot;&gt;+ [HtppPost ]Login (user)&lt;/span&gt;" style="text;strokeColor=none;fillColor=none;align=left;verticalAlign=middle;spacingLeft=4;spacingRight=4;overflow=hidden;points=[[0,0.5],[1,0.5]];portConstraint=eastwest;rotatable=0;whiteSpace=wrap;html=1;" vertex="1" parent="mHmFYiK8Zlly9gaLNjOD-21">
          <mxGeometry y="110" width="590" height="60" as="geometry" />
        </mxCell>
        <mxCell id="mHmFYiK8Zlly9gaLNjOD-24" value="&lt;span style=&quot;font-size: 30px;&quot;&gt;- UserAuth (user)&lt;/span&gt;" style="text;strokeColor=none;fillColor=none;align=left;verticalAlign=middle;spacingLeft=4;spacingRight=4;overflow=hidden;points=[[0,0.5],[1,0.5]];portConstraint=eastwest;rotatable=0;whiteSpace=wrap;html=1;" vertex="1" parent="mHmFYiK8Zlly9gaLNjOD-21">
          <mxGeometry y="170" width="590" height="60" as="geometry" />
        </mxCell>
        <mxCell id="mHmFYiK8Zlly9gaLNjOD-26" value="&lt;b&gt;&lt;font style=&quot;font-size: 40px;&quot;&gt;Refund Controller&lt;/font&gt;&lt;/b&gt;" style="swimlane;fontStyle=0;childLayout=stackLayout;horizontal=1;startSize=50;horizontalStack=0;resizeParent=1;resizeParentMax=0;resizeLast=0;collapsible=1;marginBottom=0;whiteSpace=wrap;html=1;" vertex="1" parent="1">
          <mxGeometry x="750" y="90" width="590" height="170" as="geometry" />
        </mxCell>
        <mxCell id="mHmFYiK8Zlly9gaLNjOD-27" value="&lt;font style=&quot;font-size: 30px;&quot;&gt;+ [HttpPost] (refund)&lt;/font&gt;" style="text;strokeColor=none;fillColor=none;align=left;verticalAlign=middle;spacingLeft=4;spacingRight=4;overflow=hidden;points=[[0,0.5],[1,0.5]];portConstraint=eastwest;rotatable=0;whiteSpace=wrap;html=1;" vertex="1" parent="mHmFYiK8Zlly9gaLNjOD-26">
          <mxGeometry y="50" width="590" height="60" as="geometry" />
        </mxCell>
        <mxCell id="mHmFYiK8Zlly9gaLNjOD-28" value="&lt;span style=&quot;font-size: 30px;&quot;&gt;+ [HtppGet] GetRefundsByMail&amp;nbsp;(Umail)&lt;/span&gt;" style="text;strokeColor=none;fillColor=none;align=left;verticalAlign=middle;spacingLeft=4;spacingRight=4;overflow=hidden;points=[[0,0.5],[1,0.5]];portConstraint=eastwest;rotatable=0;whiteSpace=wrap;html=1;" vertex="1" parent="mHmFYiK8Zlly9gaLNjOD-26">
          <mxGeometry y="110" width="590" height="60" as="geometry" />
        </mxCell>
        <mxCell id="mHmFYiK8Zlly9gaLNjOD-30" value="&lt;b&gt;&lt;font style=&quot;font-size: 40px;&quot;&gt;Login Service&lt;/font&gt;&lt;/b&gt;" style="swimlane;fontStyle=0;childLayout=stackLayout;horizontal=1;startSize=50;horizontalStack=0;resizeParent=1;resizeParentMax=0;resizeLast=0;collapsible=1;marginBottom=0;whiteSpace=wrap;html=1;" vertex="1" parent="1">
          <mxGeometry x="1453" y="-190" width="590" height="470" as="geometry" />
        </mxCell>
        <mxCell id="mHmFYiK8Zlly9gaLNjOD-32" value="&lt;span style=&quot;font-size: 30px;&quot;&gt;- LoginSrervice()&lt;/span&gt;" style="text;strokeColor=none;fillColor=none;align=left;verticalAlign=middle;spacingLeft=4;spacingRight=4;overflow=hidden;points=[[0,0.5],[1,0.5]];portConstraint=eastwest;rotatable=0;whiteSpace=wrap;html=1;" vertex="1" parent="mHmFYiK8Zlly9gaLNjOD-30">
          <mxGeometry y="50" width="590" height="60" as="geometry" />
        </mxCell>
        <mxCell id="mHmFYiK8Zlly9gaLNjOD-35" value="&lt;span style=&quot;font-size: 30px;&quot;&gt;+&amp;nbsp;Instance()&lt;/span&gt;" style="text;strokeColor=none;fillColor=none;align=left;verticalAlign=middle;spacingLeft=4;spacingRight=4;overflow=hidden;points=[[0,0.5],[1,0.5]];portConstraint=eastwest;rotatable=0;whiteSpace=wrap;html=1;" vertex="1" parent="mHmFYiK8Zlly9gaLNjOD-30">
          <mxGeometry y="110" width="590" height="60" as="geometry" />
        </mxCell>
        <mxCell id="mHmFYiK8Zlly9gaLNjOD-33" value="&lt;span style=&quot;font-size: 30px;&quot;&gt;+ Get ( ) // get all users&lt;/span&gt;" style="text;strokeColor=none;fillColor=none;align=left;verticalAlign=middle;spacingLeft=4;spacingRight=4;overflow=hidden;points=[[0,0.5],[1,0.5]];portConstraint=eastwest;rotatable=0;whiteSpace=wrap;html=1;" vertex="1" parent="mHmFYiK8Zlly9gaLNjOD-30">
          <mxGeometry y="170" width="590" height="60" as="geometry" />
        </mxCell>
        <mxCell id="mHmFYiK8Zlly9gaLNjOD-36" value="&lt;span style=&quot;font-size: 30px;&quot;&gt;+ Get ( user_mail )&lt;/span&gt;" style="text;strokeColor=none;fillColor=none;align=left;verticalAlign=middle;spacingLeft=4;spacingRight=4;overflow=hidden;points=[[0,0.5],[1,0.5]];portConstraint=eastwest;rotatable=0;whiteSpace=wrap;html=1;" vertex="1" parent="mHmFYiK8Zlly9gaLNjOD-30">
          <mxGeometry y="230" width="590" height="60" as="geometry" />
        </mxCell>
        <mxCell id="mHmFYiK8Zlly9gaLNjOD-34" value="&lt;span style=&quot;font-size: 30px;&quot;&gt;+ Add (user)&lt;/span&gt;" style="text;strokeColor=none;fillColor=none;align=left;verticalAlign=middle;spacingLeft=4;spacingRight=4;overflow=hidden;points=[[0,0.5],[1,0.5]];portConstraint=eastwest;rotatable=0;whiteSpace=wrap;html=1;" vertex="1" parent="mHmFYiK8Zlly9gaLNjOD-30">
          <mxGeometry y="290" width="590" height="60" as="geometry" />
        </mxCell>
        <mxCell id="mHmFYiK8Zlly9gaLNjOD-37" value="&lt;span style=&quot;font-size: 30px;&quot;&gt;+ Update (user)&lt;/span&gt;" style="text;strokeColor=none;fillColor=none;align=left;verticalAlign=middle;spacingLeft=4;spacingRight=4;overflow=hidden;points=[[0,0.5],[1,0.5]];portConstraint=eastwest;rotatable=0;whiteSpace=wrap;html=1;" vertex="1" parent="mHmFYiK8Zlly9gaLNjOD-30">
          <mxGeometry y="350" width="590" height="60" as="geometry" />
        </mxCell>
        <mxCell id="mHmFYiK8Zlly9gaLNjOD-38" value="&lt;span style=&quot;font-size: 30px;&quot;&gt;+ Remove (user)&lt;/span&gt;" style="text;strokeColor=none;fillColor=none;align=left;verticalAlign=middle;spacingLeft=4;spacingRight=4;overflow=hidden;points=[[0,0.5],[1,0.5]];portConstraint=eastwest;rotatable=0;whiteSpace=wrap;html=1;" vertex="1" parent="mHmFYiK8Zlly9gaLNjOD-30">
          <mxGeometry y="410" width="590" height="60" as="geometry" />
        </mxCell>
        <mxCell id="mHmFYiK8Zlly9gaLNjOD-39" value="&lt;b&gt;&lt;font style=&quot;font-size: 40px;&quot;&gt;RefundService&lt;/font&gt;&lt;/b&gt;" style="swimlane;fontStyle=0;childLayout=stackLayout;horizontal=1;startSize=50;horizontalStack=0;resizeParent=1;resizeParentMax=0;resizeLast=0;collapsible=1;marginBottom=0;whiteSpace=wrap;html=1;" vertex="1" parent="1">
          <mxGeometry x="1453" y="370" width="590" height="410" as="geometry" />
        </mxCell>
        <mxCell id="mHmFYiK8Zlly9gaLNjOD-40" value="&lt;span style=&quot;font-size: 30px;&quot;&gt;- RefundSrervice()&lt;/span&gt;" style="text;strokeColor=none;fillColor=none;align=left;verticalAlign=middle;spacingLeft=4;spacingRight=4;overflow=hidden;points=[[0,0.5],[1,0.5]];portConstraint=eastwest;rotatable=0;whiteSpace=wrap;html=1;" vertex="1" parent="mHmFYiK8Zlly9gaLNjOD-39">
          <mxGeometry y="50" width="590" height="60" as="geometry" />
        </mxCell>
        <mxCell id="mHmFYiK8Zlly9gaLNjOD-41" value="&lt;span style=&quot;font-size: 30px;&quot;&gt;+&amp;nbsp;Instance()&lt;/span&gt;" style="text;strokeColor=none;fillColor=none;align=left;verticalAlign=middle;spacingLeft=4;spacingRight=4;overflow=hidden;points=[[0,0.5],[1,0.5]];portConstraint=eastwest;rotatable=0;whiteSpace=wrap;html=1;" vertex="1" parent="mHmFYiK8Zlly9gaLNjOD-39">
          <mxGeometry y="110" width="590" height="60" as="geometry" />
        </mxCell>
        <mxCell id="mHmFYiK8Zlly9gaLNjOD-42" value="&lt;span style=&quot;font-size: 30px;&quot;&gt;+ Get ( ) // get all refunds&lt;/span&gt;" style="text;strokeColor=none;fillColor=none;align=left;verticalAlign=middle;spacingLeft=4;spacingRight=4;overflow=hidden;points=[[0,0.5],[1,0.5]];portConstraint=eastwest;rotatable=0;whiteSpace=wrap;html=1;" vertex="1" parent="mHmFYiK8Zlly9gaLNjOD-39">
          <mxGeometry y="170" width="590" height="60" as="geometry" />
        </mxCell>
        <mxCell id="mHmFYiK8Zlly9gaLNjOD-43" value="&lt;span style=&quot;font-size: 30px;&quot;&gt;+ GetByUserEmail&amp;nbsp;( user_mail )&lt;/span&gt;" style="text;strokeColor=none;fillColor=none;align=left;verticalAlign=middle;spacingLeft=4;spacingRight=4;overflow=hidden;points=[[0,0.5],[1,0.5]];portConstraint=eastwest;rotatable=0;whiteSpace=wrap;html=1;" vertex="1" parent="mHmFYiK8Zlly9gaLNjOD-39">
          <mxGeometry y="230" width="590" height="60" as="geometry" />
        </mxCell>
        <mxCell id="mHmFYiK8Zlly9gaLNjOD-44" value="&lt;span style=&quot;font-size: 30px;&quot;&gt;+ Add (refund)&lt;/span&gt;" style="text;strokeColor=none;fillColor=none;align=left;verticalAlign=middle;spacingLeft=4;spacingRight=4;overflow=hidden;points=[[0,0.5],[1,0.5]];portConstraint=eastwest;rotatable=0;whiteSpace=wrap;html=1;" vertex="1" parent="mHmFYiK8Zlly9gaLNjOD-39">
          <mxGeometry y="290" width="590" height="60" as="geometry" />
        </mxCell>
        <mxCell id="mHmFYiK8Zlly9gaLNjOD-46" value="&lt;span style=&quot;font-size: 30px;&quot;&gt;+ Remove (u_mail, order_id)&lt;/span&gt;" style="text;strokeColor=none;fillColor=none;align=left;verticalAlign=middle;spacingLeft=4;spacingRight=4;overflow=hidden;points=[[0,0.5],[1,0.5]];portConstraint=eastwest;rotatable=0;whiteSpace=wrap;html=1;" vertex="1" parent="mHmFYiK8Zlly9gaLNjOD-39">
          <mxGeometry y="350" width="590" height="60" as="geometry" />
        </mxCell>
      </root>
    </mxGraphModel>
  </diagram>
</mxfile>
